<svg width="500" height="500" viewBox="0 0 500 500" fill="none" xmlns="http://www.w3.org/2000/svg">
<rect width="500" height="500" fill="black"/>
<path d="M331.885 152.367L334.082 198.949H328.516C327.441 190.746 325.977 184.887 324.121 181.371C321.094 175.707 317.041 171.557 311.963 168.92C306.982 166.186 300.391 164.818 292.188 164.818H264.209V316.576C264.209 328.783 265.527 336.4 268.164 339.428C271.875 343.529 277.588 345.58 285.303 345.58H292.188V351H207.959V345.58H214.99C223.389 345.58 229.346 343.041 232.861 337.963C235.01 334.838 236.084 327.709 236.084 316.576V164.818H212.207C202.93 164.818 196.338 165.502 192.432 166.869C187.354 168.725 183.008 172.289 179.395 177.562C175.781 182.836 173.633 189.965 172.949 198.949H167.383L169.727 152.367H331.885Z" fill="white"/>
</svg>
